<svg xmlns="http://www.w3.org/2000/svg" xmlns:xlink="http://www.w3.org/1999/xlink" width="120" zoomAndPan="magnify" viewBox="0 0 90 36.000001" height="48" preserveAspectRatio="xMidYMid meet" version="1.0"><defs><g/><clipPath id="ef1072cd39"><path d="M 9 28 L 34 28 L 34 32.125 L 9 32.125 Z M 9 28 " clip-rule="nonzero"/></clipPath><clipPath id="919f495cee"><path d="M 1.214844 1.476562 L 42 1.476562 L 42 30 L 1.214844 30 Z M 1.214844 1.476562 " clip-rule="nonzero"/></clipPath><clipPath id="e82081ec51"><path d="M 86 26 L 88.78125 26 L 88.78125 32 L 86 32 Z M 86 26 " clip-rule="nonzero"/></clipPath></defs><g clip-path="url(#ef1072cd39)"><path fill="#f17424" d="M 13.796875 30.523438 C 13.960938 30.308594 14.28125 30.308594 14.445312 30.523438 C 15.191406 31.484375 16.480469 32.121094 17.941406 32.121094 C 19.378906 32.121094 20.648438 31.507812 21.394531 30.574219 C 21.558594 30.371094 21.867188 30.371094 22.03125 30.574219 C 22.78125 31.507812 24.050781 32.121094 25.488281 32.121094 C 26.9375 32.121094 28.214844 31.496094 28.960938 30.546875 C 29.128906 30.339844 29.441406 30.339844 29.605469 30.546875 C 30.351562 31.492188 31.621094 32.117188 33.066406 32.121094 L 33.96875 31.226562 C 33.6875 31.289062 33.390625 31.324219 33.082031 31.324219 C 31.226562 31.324219 29.71875 30.113281 29.71875 28.617188 L 28.847656 28.617188 C 28.847656 30.113281 27.339844 31.324219 25.488281 31.324219 C 23.632812 31.324219 22.125 30.113281 22.125 28.617188 L 21.304688 28.617188 C 21.304688 30.113281 19.796875 31.324219 17.941406 31.324219 C 16.089844 31.324219 14.578125 30.113281 14.578125 28.617188 L 13.664062 28.617188 C 13.664062 30.113281 12.15625 31.324219 10.300781 31.324219 C 9.949219 31.324219 9.609375 31.28125 9.289062 31.199219 L 10.21875 32.121094 C 10.246094 32.121094 10.273438 32.121094 10.300781 32.121094 C 11.765625 32.121094 13.054688 31.484375 13.796875 30.523438 " fill-opacity="1" fill-rule="nonzero"/></g><g clip-path="url(#919f495cee)"><path fill="#f17424" d="M 32.449219 21.679688 C 32.234375 22.597656 31.230469 23.292969 30.03125 23.292969 C 28.671875 23.292969 27.570312 22.402344 27.570312 21.3125 L 26.933594 21.3125 C 26.933594 22.402344 25.828125 23.292969 24.46875 23.292969 C 23.113281 23.292969 22.007812 22.402344 22.007812 21.3125 L 21.40625 21.3125 C 21.40625 22.402344 20.304688 23.292969 18.945312 23.292969 C 17.589844 23.292969 16.484375 22.402344 16.484375 21.3125 L 15.8125 21.3125 C 15.8125 22.402344 14.710938 23.292969 13.351562 23.292969 C 11.996094 23.292969 10.890625 22.402344 10.890625 21.3125 L 10.847656 21.3125 C 10.910156 20.59375 11.519531 20.035156 12.261719 20.035156 L 31.027344 20.035156 C 31.8125 20.035156 32.449219 20.664062 32.449219 21.441406 Z M 32.449219 26.59375 L 10.839844 26.59375 L 10.839844 22.761719 C 11.390625 23.433594 12.3125 23.875 13.351562 23.875 C 14.601562 23.875 15.679688 23.242188 16.148438 22.335938 C 16.621094 23.242188 17.695312 23.875 18.945312 23.875 C 20.164062 23.875 21.21875 23.269531 21.707031 22.398438 C 22.195312 23.269531 23.25 23.875 24.46875 23.875 C 25.707031 23.875 26.769531 23.253906 27.25 22.367188 C 27.730469 23.253906 28.796875 23.875 30.03125 23.875 C 31.015625 23.875 31.890625 23.480469 32.449219 22.871094 Z M 20.71875 13.855469 L 20.71875 19.472656 L 19.15625 19.472656 L 19.15625 13.855469 Z M 19.9375 8.027344 C 21.773438 10.394531 21.179688 12.25 20.566406 13.230469 C 20.699219 12.664062 20.625 11.90625 19.9375 11.019531 C 19.25 11.90625 19.179688 12.664062 19.308594 13.230469 C 18.695312 12.25 18.105469 10.394531 19.9375 8.027344 Z M 24.132812 13.855469 L 24.132812 19.472656 L 22.566406 19.472656 L 22.566406 13.855469 Z M 23.351562 8.027344 C 25.183594 10.394531 24.589844 12.25 23.980469 13.230469 C 24.109375 12.664062 24.039062 11.90625 23.351562 11.019531 C 22.660156 11.90625 22.589844 12.664062 22.71875 13.230469 C 22.109375 12.25 21.515625 10.394531 23.351562 8.027344 Z M 40.113281 18.171875 L 25.175781 3.40625 C 23.226562 1.476562 20.0625 1.476562 18.113281 3.40625 L 3.175781 18.171875 C 1.222656 20.101562 1.222656 23.226562 3.175781 25.15625 L 7.144531 29.078125 L 7.144531 28.84375 C 7.144531 28.066406 7.777344 27.4375 8.5625 27.4375 L 34.722656 27.4375 C 35.507812 27.4375 36.144531 28.066406 36.144531 28.84375 L 36.144531 29.078125 L 40.113281 25.15625 C 42.0625 23.226562 42.0625 20.101562 40.113281 18.171875 " fill-opacity="1" fill-rule="nonzero"/></g><g fill="#000000" fill-opacity="1"><g transform="translate(50.652702, 11.140939)"><g><path d="M 4.453125 -7.890625 C 5.023438 -7.890625 5.59375 -7.769531 6.15625 -7.53125 C 6.71875 -7.289062 7.195312 -6.96875 7.59375 -6.5625 L 6.453125 -5.203125 C 6.191406 -5.515625 5.882812 -5.757812 5.53125 -5.9375 C 5.175781 -6.125 4.828125 -6.21875 4.484375 -6.21875 C 3.859375 -6.21875 3.335938 -6 2.921875 -5.5625 C 2.503906 -5.132812 2.296875 -4.597656 2.296875 -3.953125 C 2.296875 -3.296875 2.503906 -2.75 2.921875 -2.3125 C 3.335938 -1.875 3.859375 -1.65625 4.484375 -1.65625 C 4.804688 -1.65625 5.144531 -1.734375 5.5 -1.890625 C 5.851562 -2.054688 6.171875 -2.28125 6.453125 -2.5625 L 7.609375 -1.34375 C 7.179688 -0.90625 6.675781 -0.554688 6.09375 -0.296875 C 5.519531 -0.0351562 4.945312 0.09375 4.375 0.09375 C 3.195312 0.09375 2.21875 -0.289062 1.4375 -1.0625 C 0.65625 -1.832031 0.265625 -2.789062 0.265625 -3.9375 C 0.265625 -5.0625 0.660156 -6 1.453125 -6.75 C 2.253906 -7.507812 3.253906 -7.890625 4.453125 -7.890625 Z M 4.453125 -7.890625 "/></g></g></g><g fill="#000000" fill-opacity="1"><g transform="translate(59.380554, 11.140939)"><g><path d="M 3.46875 -6.109375 C 4.300781 -6.109375 4.945312 -5.914062 5.40625 -5.53125 C 5.863281 -5.144531 6.09375 -4.613281 6.09375 -3.9375 L 6.09375 0 L 4.21875 0 L 4.21875 -0.6875 C 3.820312 -0.164062 3.207031 0.09375 2.375 0.09375 C 1.738281 0.09375 1.234375 -0.078125 0.859375 -0.421875 C 0.484375 -0.773438 0.296875 -1.234375 0.296875 -1.796875 C 0.296875 -2.367188 0.492188 -2.8125 0.890625 -3.125 C 1.296875 -3.445312 1.867188 -3.613281 2.609375 -3.625 L 4.203125 -3.625 L 4.203125 -3.703125 C 4.203125 -4.003906 4.101562 -4.238281 3.90625 -4.40625 C 3.707031 -4.570312 3.414062 -4.65625 3.03125 -4.65625 C 2.488281 -4.65625 1.890625 -4.488281 1.234375 -4.15625 L 0.6875 -5.421875 C 1.65625 -5.878906 2.582031 -6.109375 3.46875 -6.109375 Z M 2.953125 -1.21875 C 3.265625 -1.21875 3.535156 -1.289062 3.765625 -1.4375 C 3.992188 -1.59375 4.140625 -1.796875 4.203125 -2.046875 L 4.203125 -2.578125 L 2.984375 -2.578125 C 2.398438 -2.578125 2.109375 -2.363281 2.109375 -1.9375 C 2.109375 -1.707031 2.179688 -1.53125 2.328125 -1.40625 C 2.484375 -1.28125 2.691406 -1.21875 2.953125 -1.21875 Z M 2.953125 -1.21875 "/></g></g></g><g fill="#000000" fill-opacity="1"><g transform="translate(67.080398, 11.140939)"><g><path d="M 3.40625 -2.328125 L 2.765625 -1.640625 L 2.765625 0 L 0.828125 0 L 0.828125 -8.296875 L 2.765625 -8.296875 L 2.765625 -3.90625 L 4.75 -6.015625 L 6.9375 -6.015625 L 4.71875 -3.703125 L 7 0 L 4.71875 0 Z M 3.40625 -2.328125 "/></g></g></g><g fill="#000000" fill-opacity="1"><g transform="translate(75.115467, 11.140939)"><g><path d="M 3.40625 -6.09375 C 4.445312 -6.09375 5.226562 -5.769531 5.75 -5.125 C 6.28125 -4.488281 6.515625 -3.609375 6.453125 -2.484375 L 2.21875 -2.484375 C 2.3125 -2.128906 2.476562 -1.851562 2.71875 -1.65625 C 2.96875 -1.46875 3.269531 -1.375 3.625 -1.375 C 4.175781 -1.375 4.660156 -1.578125 5.078125 -1.984375 L 6.09375 -1 C 5.4375 -0.289062 4.5625 0.0625 3.46875 0.0625 C 2.488281 0.0625 1.707031 -0.210938 1.125 -0.765625 C 0.550781 -1.328125 0.265625 -2.070312 0.265625 -3 C 0.265625 -3.925781 0.550781 -4.671875 1.125 -5.234375 C 1.707031 -5.804688 2.46875 -6.09375 3.40625 -6.09375 Z M 2.171875 -3.53125 L 4.59375 -3.53125 C 4.59375 -3.894531 4.484375 -4.1875 4.265625 -4.40625 C 4.054688 -4.632812 3.78125 -4.75 3.4375 -4.75 C 3.101562 -4.75 2.820312 -4.640625 2.59375 -4.421875 C 2.375 -4.203125 2.234375 -3.90625 2.171875 -3.53125 Z M 2.171875 -3.53125 "/></g></g></g><g fill="#000000" fill-opacity="1"><g transform="translate(60.661553, 23.349474)"><g><path d="M 0.5 -5.046875 L 2.890625 -5.046875 C 3.453125 -5.046875 3.898438 -4.929688 4.234375 -4.703125 C 4.566406 -4.472656 4.734375 -4.164062 4.734375 -3.78125 C 4.734375 -3.519531 4.65625 -3.285156 4.5 -3.078125 C 4.351562 -2.878906 4.144531 -2.742188 3.875 -2.671875 C 4.1875 -2.609375 4.4375 -2.460938 4.625 -2.234375 C 4.8125 -2.003906 4.90625 -1.722656 4.90625 -1.390625 C 4.90625 -0.960938 4.734375 -0.625 4.390625 -0.375 C 4.046875 -0.125 3.570312 0 2.96875 0 L 0.5 0 Z M 1.78125 -4.0625 L 1.78125 -3.03125 L 2.8125 -3.03125 C 3 -3.03125 3.144531 -3.078125 3.25 -3.171875 C 3.363281 -3.265625 3.421875 -3.390625 3.421875 -3.546875 C 3.421875 -3.703125 3.363281 -3.828125 3.25 -3.921875 C 3.144531 -4.015625 3 -4.0625 2.8125 -4.0625 Z M 1.78125 -2.109375 L 1.78125 -0.984375 L 2.8125 -0.984375 C 3.050781 -0.984375 3.238281 -1.035156 3.375 -1.140625 C 3.519531 -1.242188 3.59375 -1.382812 3.59375 -1.5625 C 3.59375 -1.726562 3.519531 -1.859375 3.375 -1.953125 C 3.238281 -2.054688 3.050781 -2.109375 2.8125 -2.109375 Z M 1.78125 -2.109375 "/></g></g></g><g fill="#000000" fill-opacity="1"><g transform="translate(66.932805, 23.349474)"><g><path d="M 3.109375 -1.625 L 3.109375 0 L 1.828125 0 L 1.828125 -1.59375 L -0.03125 -5.046875 L 1.25 -5.046875 L 2.46875 -2.84375 L 3.65625 -5.046875 L 4.9375 -5.046875 Z M 3.109375 -1.625 "/></g></g></g><g fill="#000000" fill-opacity="1"><g transform="translate(43.974017, 31.749493)"><g><path d="M 2.4375 -5.09375 C 3.195312 -5.09375 3.863281 -4.90625 4.4375 -4.53125 L 3.953125 -3.53125 C 3.679688 -3.6875 3.394531 -3.8125 3.09375 -3.90625 C 2.789062 -4.007812 2.535156 -4.0625 2.328125 -4.0625 C 1.960938 -4.0625 1.78125 -3.9375 1.78125 -3.6875 C 1.78125 -3.53125 1.867188 -3.40625 2.046875 -3.3125 C 2.234375 -3.21875 2.457031 -3.132812 2.71875 -3.0625 C 2.976562 -2.988281 3.238281 -2.90625 3.5 -2.8125 C 3.757812 -2.71875 3.976562 -2.554688 4.15625 -2.328125 C 4.34375 -2.109375 4.4375 -1.832031 4.4375 -1.5 C 4.4375 -1.007812 4.25 -0.628906 3.875 -0.359375 C 3.5 -0.0859375 3.015625 0.046875 2.421875 0.046875 C 2.003906 0.046875 1.59375 -0.0234375 1.1875 -0.171875 C 0.78125 -0.316406 0.425781 -0.515625 0.125 -0.765625 L 0.625 -1.75 C 0.875 -1.53125 1.171875 -1.347656 1.515625 -1.203125 C 1.859375 -1.066406 2.164062 -1 2.4375 -1 C 2.644531 -1 2.804688 -1.035156 2.921875 -1.109375 C 3.035156 -1.179688 3.09375 -1.289062 3.09375 -1.4375 C 3.09375 -1.570312 3.023438 -1.6875 2.890625 -1.78125 C 2.765625 -1.875 2.601562 -1.941406 2.40625 -1.984375 C 2.207031 -2.035156 1.992188 -2.097656 1.765625 -2.171875 C 1.535156 -2.253906 1.320312 -2.335938 1.125 -2.421875 C 0.925781 -2.515625 0.757812 -2.660156 0.625 -2.859375 C 0.5 -3.054688 0.4375 -3.296875 0.4375 -3.578125 C 0.4375 -4.035156 0.617188 -4.398438 0.984375 -4.671875 C 1.347656 -4.953125 1.832031 -5.09375 2.4375 -5.09375 Z M 2.4375 -5.09375 "/></g></g></g><g fill="#000000" fill-opacity="1"><g transform="translate(49.734064, 31.749493)"><g><path d="M 5.15625 0 L 3.875 0 L 3.875 -1.953125 L 1.78125 -1.953125 L 1.78125 0 L 0.5 0 L 0.5 -5.046875 L 1.78125 -5.046875 L 1.78125 -2.96875 L 3.875 -2.96875 L 3.875 -5.046875 L 5.15625 -5.046875 Z M 5.15625 0 "/></g></g></g><g fill="#000000" fill-opacity="1"><g transform="translate(56.516519, 31.749493)"><g><path d="M 1.78125 0 L 0.5 0 L 0.5 -5.046875 L 1.78125 -5.046875 Z M 1.78125 0 "/></g></g></g><g fill="#000000" fill-opacity="1"><g transform="translate(59.929341, 31.749493)"><g><path d="M 3.28125 0 L 1.953125 0 L 0 -5.046875 L 1.359375 -5.046875 L 2.65625 -1.328125 L 3.9375 -5.046875 L 5.265625 -5.046875 Z M 3.28125 0 "/></g></g></g><g fill="#000000" fill-opacity="1"><g transform="translate(66.301393, 31.749493)"><g><path d="M 3.859375 -0.921875 L 1.65625 -0.921875 L 1.28125 0 L -0.03125 0 L 2.140625 -5.046875 L 3.453125 -5.046875 L 5.578125 0 L 4.21875 0 Z M 3.484375 -1.90625 L 2.765625 -3.765625 L 2.03125 -1.90625 Z M 3.484375 -1.90625 "/></g></g></g><g fill="#000000" fill-opacity="1"><g transform="translate(72.968648, 31.749493)"><g><path d="M 5.15625 0 L 4.03125 0 L 1.703125 -3.109375 L 1.703125 0 L 0.5 0 L 0.5 -5.046875 L 1.640625 -5.046875 L 3.96875 -1.9375 L 3.96875 -5.046875 L 5.15625 -5.046875 Z M 5.15625 0 "/></g></g></g><g fill="#000000" fill-opacity="1"><g transform="translate(79.751105, 31.749493)"><g><path d="M 3.859375 -2.5625 L 4.96875 -2.5625 L 4.96875 -0.59375 C 4.6875 -0.40625 4.351562 -0.25 3.96875 -0.125 C 3.582031 0 3.210938 0.0625 2.859375 0.0625 C 2.097656 0.0625 1.457031 -0.179688 0.9375 -0.671875 C 0.425781 -1.171875 0.171875 -1.785156 0.171875 -2.515625 C 0.171875 -3.242188 0.429688 -3.851562 0.953125 -4.34375 C 1.484375 -4.832031 2.148438 -5.078125 2.953125 -5.078125 C 3.328125 -5.078125 3.695312 -5.007812 4.0625 -4.875 C 4.4375 -4.75 4.753906 -4.570312 5.015625 -4.34375 L 4.296875 -3.46875 C 4.109375 -3.632812 3.894531 -3.765625 3.65625 -3.859375 C 3.414062 -3.960938 3.179688 -4.015625 2.953125 -4.015625 C 2.535156 -4.015625 2.1875 -3.867188 1.90625 -3.578125 C 1.625 -3.296875 1.484375 -2.941406 1.484375 -2.515625 C 1.484375 -2.085938 1.625 -1.726562 1.90625 -1.4375 C 2.1875 -1.15625 2.535156 -1.015625 2.953125 -1.015625 C 3.222656 -1.015625 3.523438 -1.097656 3.859375 -1.265625 Z M 3.859375 -2.5625 "/></g></g></g><g clip-path="url(#e82081ec51)"><g fill="#000000" fill-opacity="1"><g transform="translate(86.223957, 31.749493)"><g><path d="M 1.78125 0 L 0.5 0 L 0.5 -5.046875 L 1.78125 -5.046875 Z M 1.78125 0 "/></g></g></g></g><g fill="#000000" fill-opacity="1"><g transform="translate(34.15537, 4.962133)"><g><path d="M 2.78125 -3.46875 L 2.78125 -2.890625 L 1.78125 -2.890625 L 1.78125 0 L 1.09375 0 L 1.09375 -2.890625 L 0.09375 -2.890625 L 0.09375 -3.46875 Z M 2.78125 -3.46875 "/></g></g><g transform="translate(37.034362, 4.962133)"><g><path d="M 1.078125 0 L 0.453125 0 L 0.453125 -3.46875 L 1.34375 -3.46875 L 2.21875 -0.921875 L 2.28125 -0.921875 L 3.15625 -3.46875 L 4.03125 -3.46875 L 4.03125 0 L 3.375 0 L 3.375 -2.296875 L 3.3125 -2.296875 L 2.515625 0 L 1.9375 0 L 1.140625 -2.296875 L 1.078125 -2.296875 Z M 1.078125 0 "/></g></g></g></svg>