<svg xmlns="http://www.w3.org/2000/svg" xmlns:xlink="http://www.w3.org/1999/xlink" width="120" zoomAndPan="magnify" viewBox="0 0 90 36.000001" height="48" preserveAspectRatio="xMidYMid meet" version="1.0"><defs><g/><clipPath id="80c7fd2330"><path d="M 1.214844 0 L 88.78125 0 L 88.78125 35.027344 L 1.214844 35.027344 Z M 1.214844 0 " clip-rule="nonzero"/></clipPath><clipPath id="55f48c6aa3"><path d="M 9 28 L 34 28 L 34 32.125 L 9 32.125 Z M 9 28 " clip-rule="nonzero"/></clipPath><clipPath id="7b7824cd72"><path d="M 1.214844 1.476562 L 42 1.476562 L 42 30 L 1.214844 30 Z M 1.214844 1.476562 " clip-rule="nonzero"/></clipPath></defs><g clip-path="url(#80c7fd2330)"><path fill="#ffffff" d="M 1.214844 0 L 88.785156 0 L 88.785156 42.324219 L 1.214844 42.324219 Z M 1.214844 0 " fill-opacity="1" fill-rule="nonzero"/><path fill="#ffffff" d="M 1.214844 0 L 88.785156 0 L 88.785156 35.027344 L 1.214844 35.027344 Z M 1.214844 0 " fill-opacity="1" fill-rule="nonzero"/><path fill="#ffffff" d="M 1.214844 0 L 88.785156 0 L 88.785156 35.027344 L 1.214844 35.027344 Z M 1.214844 0 " fill-opacity="1" fill-rule="nonzero"/></g><g clip-path="url(#55f48c6aa3)"><path fill="#f17424" d="M 13.796875 30.523438 C 13.960938 30.308594 14.28125 30.308594 14.445312 30.523438 C 15.191406 31.484375 16.480469 32.121094 17.941406 32.121094 C 19.378906 32.121094 20.648438 31.507812 21.394531 30.574219 C 21.558594 30.371094 21.867188 30.371094 22.03125 30.574219 C 22.78125 31.507812 24.050781 32.121094 25.488281 32.121094 C 26.9375 32.121094 28.214844 31.496094 28.960938 30.546875 C 29.128906 30.339844 29.441406 30.339844 29.605469 30.546875 C 30.351562 31.492188 31.621094 32.117188 33.066406 32.121094 L 33.96875 31.226562 C 33.6875 31.289062 33.390625 31.324219 33.082031 31.324219 C 31.226562 31.324219 29.71875 30.113281 29.71875 28.617188 L 28.847656 28.617188 C 28.847656 30.113281 27.339844 31.324219 25.488281 31.324219 C 23.632812 31.324219 22.125 30.113281 22.125 28.617188 L 21.304688 28.617188 C 21.304688 30.113281 19.796875 31.324219 17.941406 31.324219 C 16.089844 31.324219 14.578125 30.113281 14.578125 28.617188 L 13.664062 28.617188 C 13.664062 30.113281 12.15625 31.324219 10.300781 31.324219 C 9.949219 31.324219 9.609375 31.28125 9.289062 31.199219 L 10.21875 32.121094 C 10.246094 32.121094 10.273438 32.121094 10.300781 32.121094 C 11.765625 32.121094 13.054688 31.484375 13.796875 30.523438 " fill-opacity="1" fill-rule="nonzero"/></g><g clip-path="url(#7b7824cd72)"><path fill="#f17424" d="M 32.449219 21.679688 C 32.234375 22.597656 31.230469 23.292969 30.03125 23.292969 C 28.671875 23.292969 27.570312 22.402344 27.570312 21.3125 L 26.933594 21.3125 C 26.933594 22.402344 25.828125 23.292969 24.46875 23.292969 C 23.113281 23.292969 22.007812 22.402344 22.007812 21.3125 L 21.40625 21.3125 C 21.40625 22.402344 20.304688 23.292969 18.945312 23.292969 C 17.589844 23.292969 16.484375 22.402344 16.484375 21.3125 L 15.8125 21.3125 C 15.8125 22.402344 14.710938 23.292969 13.351562 23.292969 C 11.996094 23.292969 10.890625 22.402344 10.890625 21.3125 L 10.847656 21.3125 C 10.910156 20.59375 11.519531 20.035156 12.261719 20.035156 L 31.027344 20.035156 C 31.8125 20.035156 32.449219 20.664062 32.449219 21.441406 Z M 32.449219 26.59375 L 10.839844 26.59375 L 10.839844 22.761719 C 11.390625 23.433594 12.3125 23.875 13.351562 23.875 C 14.601562 23.875 15.679688 23.242188 16.148438 22.335938 C 16.621094 23.242188 17.695312 23.875 18.945312 23.875 C 20.164062 23.875 21.21875 23.269531 21.707031 22.398438 C 22.195312 23.269531 23.25 23.875 24.46875 23.875 C 25.707031 23.875 26.769531 23.253906 27.25 22.367188 C 27.730469 23.253906 28.796875 23.875 30.03125 23.875 C 31.015625 23.875 31.890625 23.480469 32.449219 22.871094 Z M 20.71875 13.855469 L 20.71875 19.472656 L 19.15625 19.472656 L 19.15625 13.855469 Z M 19.9375 8.027344 C 21.773438 10.394531 21.179688 12.25 20.566406 13.230469 C 20.699219 12.664062 20.625 11.90625 19.9375 11.019531 C 19.25 11.90625 19.179688 12.664062 19.308594 13.230469 C 18.695312 12.25 18.105469 10.394531 19.9375 8.027344 Z M 24.132812 13.855469 L 24.132812 19.472656 L 22.566406 19.472656 L 22.566406 13.855469 Z M 23.351562 8.027344 C 25.183594 10.394531 24.589844 12.25 23.980469 13.230469 C 24.109375 12.664062 24.039062 11.90625 23.351562 11.019531 C 22.660156 11.90625 22.589844 12.664062 22.71875 13.230469 C 22.109375 12.25 21.515625 10.394531 23.351562 8.027344 Z M 40.113281 18.171875 L 25.175781 3.40625 C 23.226562 1.476562 20.0625 1.476562 18.113281 3.40625 L 3.175781 18.171875 C 1.222656 20.101562 1.222656 23.226562 3.175781 25.15625 L 7.144531 29.078125 L 7.144531 28.84375 C 7.144531 28.066406 7.777344 27.4375 8.5625 27.4375 L 34.722656 27.4375 C 35.507812 27.4375 36.144531 28.066406 36.144531 28.84375 L 36.144531 29.078125 L 40.113281 25.15625 C 42.0625 23.226562 42.0625 20.101562 40.113281 18.171875 " fill-opacity="1" fill-rule="nonzero"/></g><g fill="#000000" fill-opacity="1"><g transform="translate(34.15537, 4.962133)"><g><path d="M 2.78125 -3.46875 L 2.78125 -2.890625 L 1.78125 -2.890625 L 1.78125 0 L 1.09375 0 L 1.09375 -2.890625 L 0.09375 -2.890625 L 0.09375 -3.46875 Z M 2.78125 -3.46875 "/></g></g><g transform="translate(37.034362, 4.962133)"><g><path d="M 1.078125 0 L 0.453125 0 L 0.453125 -3.46875 L 1.34375 -3.46875 L 2.21875 -0.921875 L 2.28125 -0.921875 L 3.15625 -3.46875 L 4.03125 -3.46875 L 4.03125 0 L 3.375 0 L 3.375 -2.296875 L 3.3125 -2.296875 L 2.515625 0 L 1.9375 0 L 1.140625 -2.296875 L 1.078125 -2.296875 Z M 1.078125 0 "/></g></g></g></svg>