<svg xmlns="http://www.w3.org/2000/svg" xmlns:xlink="http://www.w3.org/1999/xlink" width="60" zoomAndPan="magnify" viewBox="0 0 45 36.000001" height="48" preserveAspectRatio="xMidYMid meet" version="1.0"><defs><g/><clipPath id="53ce1e91b7"><path d="M 0.609375 0 L 44.390625 0 L 44.390625 35.027344 L 0.609375 35.027344 Z M 0.609375 0 " clip-rule="nonzero"/></clipPath><clipPath id="64553b465c"><path d="M 10 29 L 35 29 L 35 32.945312 L 10 32.945312 Z M 10 29 " clip-rule="nonzero"/></clipPath><clipPath id="6fb874d6b5"><path d="M 2.441406 2.292969 L 42.578125 2.292969 L 42.578125 30 L 2.441406 30 Z M 2.441406 2.292969 " clip-rule="nonzero"/></clipPath></defs><g clip-path="url(#53ce1e91b7)"><path fill="#ffffff" d="M 0.609375 0 L 44.390625 0 L 44.390625 42.324219 L 0.609375 42.324219 Z M 0.609375 0 " fill-opacity="1" fill-rule="nonzero"/><path fill="#ffffff" d="M 0.609375 0 L 44.390625 0 L 44.390625 35.027344 L 0.609375 35.027344 Z M 0.609375 0 " fill-opacity="1" fill-rule="nonzero"/><path fill="#ffffff" d="M 0.609375 0 L 44.390625 0 L 44.390625 35.027344 L 0.609375 35.027344 Z M 0.609375 0 " fill-opacity="1" fill-rule="nonzero"/></g><g clip-path="url(#64553b465c)"><path fill="#f17424" d="M 14.796875 31.339844 C 14.960938 31.125 15.273438 31.125 15.4375 31.339844 C 16.167969 32.300781 17.433594 32.941406 18.871094 32.941406 C 20.28125 32.941406 21.527344 32.324219 22.261719 31.394531 C 22.421875 31.1875 22.726562 31.1875 22.886719 31.394531 C 23.625 32.324219 24.871094 32.941406 26.28125 32.941406 C 27.703125 32.941406 28.960938 32.3125 29.695312 31.367188 C 29.855469 31.15625 30.164062 31.15625 30.324219 31.367188 C 31.054688 32.308594 32.304688 32.933594 33.722656 32.9375 L 34.613281 32.046875 C 34.332031 32.109375 34.042969 32.144531 33.738281 32.144531 C 31.917969 32.144531 30.4375 30.929688 30.4375 29.4375 L 29.582031 29.4375 C 29.582031 30.929688 28.101562 32.144531 26.28125 32.144531 C 24.460938 32.144531 22.976562 30.929688 22.976562 29.4375 L 22.171875 29.4375 C 22.171875 30.929688 20.691406 32.144531 18.871094 32.144531 C 17.050781 32.144531 15.566406 30.929688 15.566406 29.4375 L 14.667969 29.4375 C 14.667969 30.929688 13.1875 32.144531 11.363281 32.144531 C 11.019531 32.144531 10.683594 32.097656 10.371094 32.015625 L 11.285156 32.9375 C 11.3125 32.9375 11.339844 32.941406 11.363281 32.941406 C 12.800781 32.941406 14.066406 32.300781 14.796875 31.339844 " fill-opacity="1" fill-rule="nonzero"/></g><g clip-path="url(#6fb874d6b5)"><path fill="#f17424" d="M 33.117188 22.496094 C 32.90625 23.414062 31.921875 24.109375 30.742188 24.109375 C 29.410156 24.109375 28.324219 23.222656 28.324219 22.128906 L 27.699219 22.128906 C 27.699219 23.222656 26.613281 24.109375 25.28125 24.109375 C 23.949219 24.109375 22.863281 23.222656 22.863281 22.128906 L 22.273438 22.128906 C 22.273438 23.222656 21.1875 24.109375 19.855469 24.109375 C 18.523438 24.109375 17.4375 23.222656 17.4375 22.128906 L 16.78125 22.128906 C 16.78125 23.222656 15.695312 24.109375 14.363281 24.109375 C 13.027344 24.109375 11.945312 23.222656 11.945312 22.128906 L 11.898438 22.128906 C 11.964844 21.414062 12.5625 20.851562 13.289062 20.851562 L 31.722656 20.851562 C 32.492188 20.851562 33.117188 21.480469 33.117188 22.257812 Z M 33.117188 27.410156 L 11.894531 27.410156 L 11.894531 23.582031 C 12.433594 24.253906 13.339844 24.695312 14.363281 24.695312 C 15.589844 24.695312 16.644531 24.058594 17.109375 23.152344 C 17.570312 24.058594 18.628906 24.695312 19.855469 24.695312 C 21.054688 24.695312 22.089844 24.089844 22.570312 23.21875 C 23.046875 24.089844 24.082031 24.695312 25.28125 24.695312 C 26.496094 24.695312 27.539062 24.074219 28.011719 23.183594 C 28.484375 24.074219 29.527344 24.695312 30.742188 24.695312 C 31.707031 24.695312 32.570312 24.300781 33.117188 23.691406 Z M 21.597656 14.671875 L 21.597656 20.289062 L 20.0625 20.289062 L 20.0625 14.671875 Z M 20.828125 8.84375 C 22.632812 11.210938 22.046875 13.066406 21.449219 14.050781 C 21.578125 13.484375 21.507812 12.726562 20.828125 11.835938 C 20.152344 12.726562 20.082031 13.484375 20.210938 14.050781 C 19.609375 13.066406 19.027344 11.210938 20.828125 8.84375 Z M 24.949219 14.671875 L 24.949219 20.289062 L 23.414062 20.289062 L 23.414062 14.671875 Z M 24.179688 8.84375 C 25.984375 11.210938 25.398438 13.066406 24.800781 14.050781 C 24.925781 13.484375 24.855469 12.726562 24.179688 11.835938 C 23.503906 12.726562 23.433594 13.484375 23.5625 14.050781 C 22.960938 13.066406 22.378906 11.210938 24.179688 8.84375 Z M 40.644531 18.992188 L 25.972656 4.222656 C 24.058594 2.292969 20.953125 2.292969 19.035156 4.222656 L 4.367188 18.992188 C 2.449219 20.917969 2.449219 24.042969 4.367188 25.972656 L 8.261719 29.894531 L 8.261719 29.660156 C 8.261719 28.882812 8.886719 28.253906 9.660156 28.253906 L 35.351562 28.253906 C 36.121094 28.253906 36.746094 28.882812 36.746094 29.660156 L 36.746094 29.894531 L 40.644531 25.972656 C 42.5625 24.042969 42.5625 20.917969 40.644531 18.992188 " fill-opacity="1" fill-rule="nonzero"/></g><g fill="#000000" fill-opacity="1"><g transform="translate(33.861467, 5.691878)"><g><path d="M 1.390625 -1.734375 L 1.390625 -1.453125 L 0.890625 -1.453125 L 0.890625 0 L 0.546875 0 L 0.546875 -1.453125 L 0.046875 -1.453125 L 0.046875 -1.734375 Z M 1.390625 -1.734375 "/></g></g><g transform="translate(35.300963, 5.691878)"><g><path d="M 0.546875 0 L 0.21875 0 L 0.21875 -1.734375 L 0.671875 -1.734375 L 1.109375 -0.453125 L 1.140625 -0.453125 L 1.578125 -1.734375 L 2.015625 -1.734375 L 2.015625 0 L 1.6875 0 L 1.6875 -1.15625 L 1.65625 -1.15625 L 1.265625 0 L 0.96875 0 L 0.578125 -1.15625 L 0.546875 -1.15625 Z M 0.546875 0 "/></g></g></g></svg>