<svg xmlns="http://www.w3.org/2000/svg" xmlns:xlink="http://www.w3.org/1999/xlink" width="150" zoomAndPan="magnify" viewBox="0 0 112.5 112.499997" height="150" preserveAspectRatio="xMidYMid meet" version="1.0"><defs><clipPath id="72ba059303"><path d="M 3.421875 3.421875 L 109.171875 3.421875 L 109.171875 109.167969 L 3.421875 109.167969 Z M 3.421875 3.421875 " clip-rule="nonzero"/></clipPath></defs><path fill="#000000" d="M 61.199219 35.945312 C 61.199219 33.242188 58.996094 31.042969 56.296875 31.042969 C 53.59375 31.042969 51.390625 33.242188 51.390625 35.945312 C 51.636719 42.4375 60.953125 42.441406 61.199219 35.945312 " fill-opacity="1" fill-rule="nonzero"/><path fill="#000000" d="M 24.988281 65.476562 C 17.96875 65.476562 12.257812 71.1875 12.257812 78.207031 L 12.257812 81.339844 C 12.257812 83.179688 13.757812 84.675781 15.597656 84.675781 C 17.210938 84.675781 18.519531 85.984375 18.519531 87.601562 L 18.519531 100.328125 L 31.457031 100.328125 L 31.457031 87.601562 C 31.457031 85.984375 32.765625 84.675781 34.382812 84.675781 C 36.222656 84.675781 37.71875 83.179688 37.71875 81.339844 L 37.71875 78.207031 C 37.71875 71.1875 32.007812 65.476562 24.988281 65.476562 " fill-opacity="1" fill-rule="nonzero"/><path fill="#000000" d="M 29.894531 54.730469 C 29.894531 52.023438 27.695312 49.824219 24.988281 49.824219 C 22.285156 49.824219 20.085938 52.023438 20.085938 54.730469 C 20.332031 61.222656 29.648438 61.226562 29.894531 54.730469 " fill-opacity="1" fill-rule="nonzero"/><g clip-path="url(#72ba059303)"><path fill="#000000" d="M 106.175781 62.558594 C 106.175781 66.601562 103.550781 70.042969 99.914062 71.265625 L 99.914062 103.253906 C 99.914062 104.867188 98.609375 106.175781 96.992188 106.175781 L 78.207031 106.175781 C 76.59375 106.175781 75.285156 104.867188 75.285156 103.253906 L 75.285156 71.265625 C 75.144531 71.21875 75.007812 71.167969 74.871094 71.113281 C 75.179688 75.402344 72.550781 79.367188 68.609375 80.65625 L 68.609375 103.253906 C 68.609375 104.867188 67.300781 106.175781 65.6875 106.175781 L 46.90625 106.175781 C 45.289062 106.175781 43.980469 104.867188 43.980469 103.253906 L 43.980469 80.65625 C 43.839844 80.609375 43.703125 80.554688 43.566406 80.5 C 43.871094 84.792969 41.246094 88.757812 37.304688 90.046875 L 37.304688 103.253906 C 37.304688 104.867188 35.996094 106.175781 34.382812 106.175781 L 15.597656 106.175781 C 13.984375 106.175781 12.675781 104.867188 12.675781 103.253906 L 12.675781 90.046875 C 9.039062 88.824219 6.414062 85.382812 6.414062 81.339844 L 6.414062 78.207031 C 6.414062 70.9375 10.613281 64.628906 16.714844 61.582031 C 10.925781 54.769531 15.96875 43.902344 24.988281 43.980469 C 34.011719 43.902344 39.054688 54.769531 33.265625 61.582031 C 34.902344 62.398438 36.402344 63.453125 37.71875 64.699219 L 37.71875 59.425781 C 37.71875 52.152344 41.917969 45.84375 48.019531 42.796875 C 42.230469 35.988281 47.273438 25.117188 56.296875 25.195312 C 65.320312 25.117188 70.359375 35.984375 64.570312 42.796875 C 66.207031 43.613281 67.707031 44.671875 69.023438 45.914062 L 69.023438 40.640625 C 69.023438 33.371094 73.222656 27.0625 79.328125 24.015625 C 73.535156 17.203125 78.578125 6.332031 87.601562 6.410156 C 96.625 6.332031 101.664062 17.199219 95.878906 24.015625 C 101.976562 27.0625 106.175781 33.371094 106.175781 40.640625 Z M 100.054688 23.03125 C 101.761719 19.449219 101.796875 15.238281 100.03125 11.417969 C 97.746094 6.484375 93.023438 3.421875 87.507812 3.421875 C 82.179688 3.421875 77.453125 6.484375 75.171875 11.421875 C 73.402344 15.238281 73.441406 19.449219 75.148438 23.03125 C 72.457031 24.925781 70.273438 27.378906 68.71875 30.183594 C 66.433594 25.261719 61.710938 22.203125 56.199219 22.203125 C 50.875 22.203125 46.148438 25.265625 43.867188 30.199219 C 42.097656 34.023438 42.136719 38.234375 43.84375 41.8125 C 41.152344 43.710938 38.96875 46.164062 37.410156 48.96875 C 35.128906 44.046875 30.40625 40.988281 24.890625 40.988281 C 19.566406 40.988281 14.839844 44.050781 12.5625 48.984375 C 10.792969 52.808594 10.828125 57.015625 12.539062 60.601562 C 6.84375 64.609375 3.421875 71.101562 3.421875 78.207031 L 3.421875 81.335938 C 3.421875 85.820312 5.863281 89.863281 9.683594 91.980469 L 9.683594 103.253906 C 9.683594 106.515625 12.335938 109.167969 15.597656 109.167969 L 34.382812 109.167969 C 37.644531 109.167969 40.296875 106.515625 40.296875 103.253906 L 40.296875 91.996094 C 40.53125 91.867188 40.761719 91.726562 40.988281 91.582031 L 40.988281 103.253906 C 40.988281 106.515625 43.644531 109.167969 46.90625 109.167969 L 65.6875 109.167969 C 68.949219 109.167969 71.601562 106.515625 71.601562 103.253906 L 71.601562 82.605469 C 71.839844 82.472656 72.070312 82.335938 72.292969 82.191406 L 72.292969 103.253906 C 72.292969 106.515625 74.945312 109.167969 78.207031 109.167969 L 96.992188 109.167969 C 100.253906 109.167969 102.910156 106.515625 102.910156 103.253906 L 102.910156 73.203125 C 106.726562 71.085938 109.171875 67.042969 109.171875 62.558594 L 109.171875 40.640625 C 109.171875 33.53125 105.746094 27.039062 100.054688 23.03125 " fill-opacity="1" fill-rule="nonzero"/></g><path fill="#000000" d="M 74.871094 40.640625 L 74.871094 62.558594 C 74.871094 64.398438 76.367188 65.898438 78.210938 65.898438 C 79.824219 65.898438 81.132812 67.207031 81.132812 68.820312 L 81.132812 100.328125 L 94.070312 100.328125 L 94.070312 68.820312 C 94.070312 67.207031 95.378906 65.898438 96.992188 65.898438 C 98.832031 65.898438 100.332031 64.398438 100.332031 62.558594 L 100.332031 40.640625 C 99.691406 23.773438 75.503906 23.785156 74.871094 40.640625 " fill-opacity="1" fill-rule="nonzero"/><path fill="#000000" d="M 43.566406 59.425781 L 43.566406 71.945312 C 43.566406 73.789062 45.0625 75.285156 46.90625 75.285156 C 48.515625 75.285156 49.828125 76.59375 49.828125 78.207031 L 49.828125 100.328125 L 62.765625 100.328125 L 62.765625 78.207031 C 62.765625 76.59375 64.074219 75.285156 65.6875 75.285156 C 67.527344 75.285156 69.023438 73.789062 69.023438 71.945312 L 69.023438 59.425781 C 68.386719 42.558594 44.203125 42.5625 43.566406 59.425781 " fill-opacity="1" fill-rule="nonzero"/><path fill="#000000" d="M 92.503906 17.160156 C 92.503906 14.460938 90.304688 12.257812 87.601562 12.257812 C 84.898438 12.257812 82.699219 14.460938 82.699219 17.160156 C 82.945312 23.65625 92.257812 23.65625 92.503906 17.160156 " fill-opacity="1" fill-rule="nonzero"/></svg>