<svg xmlns="http://www.w3.org/2000/svg" xmlns:xlink="http://www.w3.org/1999/xlink" width="150" zoomAndPan="magnify" viewBox="0 0 112.5 112.499997" height="150" preserveAspectRatio="xMidYMid meet" version="1.0"><defs><clipPath id="a55548b43e"><path d="M 0 0 L 112.003906 0 L 112.003906 112.003906 L 0 112.003906 Z M 0 0 " clip-rule="nonzero"/></clipPath><clipPath id="7d5b678393"><path d="M 38.125 37.304688 L 110.183594 37.304688 L 110.183594 108.941406 L 38.125 108.941406 Z M 38.125 37.304688 " clip-rule="nonzero"/></clipPath><clipPath id="94849fa22a"><path d="M 71 37 L 110.25 37 L 110.25 107 L 71 107 Z M 71 37 " clip-rule="nonzero"/></clipPath><clipPath id="ae576a43c2"><path d="M 87.707031 88.625 L 110.183594 88.625 L 110.183594 108.941406 L 87.707031 108.941406 Z M 87.707031 88.625 " clip-rule="nonzero"/></clipPath><clipPath id="bcf4c28968"><path d="M 100 88 L 110.25 88 L 110.25 107 L 100 107 Z M 100 88 " clip-rule="nonzero"/></clipPath><clipPath id="7779330b70"><path d="M 51 3.191406 L 56 3.191406 L 56 9 L 51 9 Z M 51 3.191406 " clip-rule="nonzero"/></clipPath></defs><g clip-path="url(#a55548b43e)"><path fill="#ffffff" d="M 0 0 L 112.5 0 L 112.5 120 L 0 120 Z M 0 0 " fill-opacity="1" fill-rule="nonzero"/><path fill="#ffffff" d="M 0 0 L 112.5 0 L 112.5 112.5 L 0 112.5 Z M 0 0 " fill-opacity="1" fill-rule="nonzero"/><path fill="#ffffff" d="M 0 0 L 112.5 0 L 112.5 112.5 L 0 112.5 Z M 0 0 " fill-opacity="1" fill-rule="nonzero"/></g><g clip-path="url(#7d5b678393)"><path fill="#fcce4e" d="M 109.882812 104.816406 C 99.957031 82.472656 88.59375 60.558594 78.21875 38.351562 C 76.914062 35.632812 69.617188 39.101562 60.175781 47.292969 C 50.863281 55.792969 37.648438 69.539062 38.363281 76.125 C 38.46875 77.09375 39.09375 77.929688 39.984375 78.335938 L 106.503906 108.683594 C 107.402344 109.09375 108.464844 109.019531 109.253906 108.425781 C 109.398438 108.316406 109.535156 108.195312 109.691406 107.949219 C 110.285156 107.011719 110.335938 105.828125 109.882812 104.816406 " fill-opacity="1" fill-rule="nonzero"/></g><g clip-path="url(#94849fa22a)"><path fill="#fddb7d" d="M 78.21875 38.351562 C 77.503906 36.867188 75 37.234375 71.335938 39.203125 L 110.128906 106.820312 C 110.25 106.152344 110.164062 105.449219 109.882812 104.816406 C 99.957031 82.472656 88.59375 60.558594 78.21875 38.351562 " fill-opacity="1" fill-rule="nonzero"/></g><g clip-path="url(#ae576a43c2)"><path fill="#6e65dc" d="M 102.464844 88.679688 C 97.539062 95.882812 91.753906 98.921875 87.917969 100.203125 L 106.503906 108.683594 C 107.402344 109.09375 108.464844 109.019531 109.253906 108.425781 C 109.398438 108.316406 109.535156 108.195312 109.691406 107.949219 C 110.285156 107.011719 110.335938 105.828125 109.882812 104.816406 C 107.484375 99.414062 105 94.039062 102.464844 88.679688 " fill-opacity="1" fill-rule="nonzero"/></g><path fill="#6e65dc" d="M 86.300781 55.28125 C 80.28125 72.070312 63.777344 81.492188 55.339844 85.339844 L 70.734375 92.363281 C 84.960938 88.386719 91.066406 78.183594 93.679688 70.421875 C 91.21875 65.375 88.75 60.328125 86.300781 55.28125 " fill-opacity="1" fill-rule="nonzero"/><path fill="#fb9226" d="M 61.011719 47.816406 C 50.707031 56.699219 40.878906 69.265625 39.90625 74.597656 C 38.9375 79.925781 47.621094 77.488281 57.925781 68.605469 C 68.230469 59.726562 76.675781 48.707031 77.882812 43.421875 C 79.394531 36.804688 71.316406 38.933594 61.011719 47.816406 " fill-opacity="1" fill-rule="nonzero"/><path fill="#fb8812" d="M 67.800781 52.851562 C 59.648438 59.878906 51.78125 69.050781 47.78125 75.683594 C 50.820312 74.089844 54.316406 71.714844 57.925781 68.605469 C 66.425781 61.28125 73.324219 52.621094 76.65625 46.425781 C 74.035156 47.921875 71.019531 50.078125 67.800781 52.851562 " fill-opacity="1" fill-rule="nonzero"/><g clip-path="url(#bcf4c28968)"><path fill="#7d75e0" d="M 106.734375 97.851562 C 106.558594 97.460938 106.382812 97.074219 106.203125 96.6875 C 105.625 95.433594 105.042969 94.175781 104.457031 92.921875 C 104.421875 92.84375 104.386719 92.765625 104.347656 92.6875 C 103.726562 91.355469 103.105469 90.027344 102.476562 88.703125 C 102.472656 88.695312 102.46875 88.6875 102.464844 88.679688 C 101.960938 89.421875 101.445312 90.117188 100.921875 90.769531 L 110.128906 106.820312 C 110.132812 106.808594 110.132812 106.796875 110.132812 106.789062 C 110.152344 106.679688 110.164062 106.570312 110.171875 106.460938 C 110.175781 106.433594 110.175781 106.402344 110.179688 106.375 C 110.183594 106.257812 110.183594 106.144531 110.175781 106.027344 C 110.175781 106.003906 110.171875 105.980469 110.171875 105.957031 C 110.164062 105.851562 110.148438 105.75 110.132812 105.644531 C 110.128906 105.625 110.125 105.601562 110.121094 105.582031 C 110.101562 105.464844 110.070312 105.351562 110.039062 105.238281 C 110.03125 105.210938 110.019531 105.1875 110.011719 105.160156 C 109.976562 105.042969 109.933594 104.929688 109.882812 104.816406 C 109.277344 103.449219 108.664062 102.085938 108.046875 100.726562 C 107.613281 99.765625 107.175781 98.808594 106.734375 97.851562 " fill-opacity="1" fill-rule="nonzero"/></g><path fill="#7d75e0" d="M 91.835938 74.933594 C 92.589844 73.382812 93.191406 71.859375 93.679688 70.421875 C 92.40625 67.808594 91.128906 65.199219 89.855469 62.585938 C 88.667969 60.152344 87.484375 57.71875 86.300781 55.28125 C 85.59375 57.25 84.738281 59.113281 83.773438 60.886719 L 91.835938 74.933594 " fill-opacity="1" fill-rule="nonzero"/><path fill="#fe5275" d="M 73.242188 21.476562 C 74.84375 20.597656 77.292969 20.1875 78.921875 21.921875 C 79.628906 22.683594 79.949219 23.601562 79.816406 24.507812 C 79.6875 25.402344 79.136719 26.175781 78.261719 26.691406 C 77.089844 27.382812 75.835938 27.527344 74.527344 27.125 C 72.980469 26.644531 71.558594 25.484375 70.449219 24.136719 C 71.15625 23.042969 72.066406 22.121094 73.242188 21.476562 Z M 78.476562 17.710938 C 76.234375 16.886719 73.941406 17.054688 71.839844 18.195312 C 70.628906 18.851562 69.503906 19.820312 68.535156 21 C 66.667969 16.582031 67.621094 12.15625 68.945312 8.023438 C 69.121094 7.472656 68.84375 6.84375 68.289062 6.53125 C 67.78125 6.246094 67.195312 6.328125 66.828125 6.738281 C 62.9375 11.128906 63.46875 18.101562 65.609375 22.722656 C 65.863281 23.273438 66.152344 23.816406 66.472656 24.34375 C 66.070312 25.246094 65.75 26.1875 65.535156 27.15625 C 63.996094 34 65.28125 41.546875 69.246094 48.972656 C 69.457031 49.367188 69.855469 49.59375 70.265625 49.59375 C 70.445312 49.59375 70.628906 49.550781 70.800781 49.460938 C 71.347656 49.175781 71.542969 48.535156 71.25 47.976562 C 69.164062 43.933594 68.097656 39 68.167969 33.707031 C 68.195312 31.761719 68.398438 29.558594 68.976562 27.515625 C 71.800781 30.277344 75.5625 31.753906 79.292969 30.179688 C 81.839844 29.101562 83.324219 26.878906 83.257812 24.230469 C 83.191406 21.351562 81.265625 18.730469 78.476562 17.710938 " fill-opacity="1" fill-rule="nonzero"/><path fill="#7870de" d="M 63.667969 59.660156 C 61.703125 49.691406 51.796875 43.265625 43.023438 42.070312 C 38.300781 41.429688 31.953125 42.292969 29.605469 46.84375 C 28.78125 48.4375 28.660156 50.085938 29.238281 51.742188 C 30.257812 54.652344 33.203125 56.855469 35.617188 57.945312 C 35.929688 58.085938 36.25 58.0625 36.503906 57.886719 C 36.769531 57.695312 36.910156 57.355469 36.878906 56.996094 C 36.839844 56.621094 36.613281 56.304688 36.273438 56.148438 C 33.589844 54.9375 31.949219 53.4375 31.257812 51.566406 C 30.378906 49.195312 31.3125 46.914062 33.753906 45.457031 C 38.085938 42.875 43.503906 43.910156 46.34375 44.757812 C 52.726562 46.65625 60.128906 51.65625 61.773438 60 C 61.875 60.523438 62.316406 60.789062 62.742188 60.789062 C 62.808594 60.789062 62.871094 60.78125 62.9375 60.769531 C 63.457031 60.667969 63.773438 60.191406 63.667969 59.660156 " fill-opacity="1" fill-rule="nonzero"/><path fill="#ffd032" d="M 43.269531 30.988281 C 43.167969 32.015625 42.746094 33.832031 41.0625 34.460938 C 40.269531 34.757812 39.453125 34.683594 38.929688 34.269531 C 38.492188 33.925781 38.3125 33.382812 38.40625 32.699219 C 38.519531 31.886719 38.894531 31.253906 39.558594 30.765625 C 40.539062 30.039062 41.960938 29.757812 43.300781 29.726562 C 43.320312 30.160156 43.308594 30.582031 43.269531 30.988281 Z M 64.480469 47.480469 C 62.019531 41.117188 59.398438 35.058594 54.445312 30.90625 C 52.007812 28.863281 48.691406 27.214844 45.359375 26.828125 C 45.078125 25.457031 44.648438 24.140625 44.148438 23.035156 C 41.535156 17.25 36.253906 13.0625 30.363281 12.101562 C 29.765625 12.003906 29.234375 12.363281 29.101562 12.960938 C 28.972656 13.539062 29.253906 14.25 29.945312 14.441406 C 34.964844 15.832031 39.144531 19.074219 41.410156 23.335938 C 42.023438 24.492188 42.496094 25.65625 42.816406 26.789062 C 41.324219 26.933594 39.875 27.378906 38.554688 28.210938 C 36.574219 29.460938 35.144531 32.035156 36.246094 34.535156 C 37.109375 36.492188 39.355469 37.425781 41.585938 36.753906 C 43.175781 36.273438 44.328125 35.269531 45.011719 33.773438 C 45.519531 32.664062 45.722656 31.332031 45.710938 29.9375 C 48.652344 30.535156 51.109375 32.222656 52.683594 33.570312 C 56.234375 36.621094 58.460938 40.910156 60.609375 45.0625 C 61.167969 46.140625 61.746094 47.257812 62.339844 48.332031 C 62.554688 48.722656 62.980469 48.949219 63.421875 48.949219 C 63.601562 48.949219 63.78125 48.910156 63.949219 48.832031 C 64.476562 48.589844 64.695312 48.035156 64.480469 47.480469 " fill-opacity="1" fill-rule="nonzero"/><path fill="#68cddf" d="M 30.027344 76.878906 C 32.207031 78.316406 33.8125 80.53125 33.789062 83.445312 C 33.773438 85.222656 33.046875 87.5 31.058594 88.558594 C 29.886719 89.179688 28.664062 89.207031 27.703125 88.632812 C 26.734375 88.046875 26.183594 86.953125 26.191406 85.625 C 26.210938 82.484375 27.878906 79.335938 30.027344 76.878906 Z M 49.898438 70.394531 Z M 50.070312 69.929688 C 43.761719 67.65625 36.902344 68.535156 31.714844 72.277344 C 31.070312 72.742188 30.433594 73.261719 29.824219 73.832031 C 23.285156 70.757812 15.976562 73.429688 9.652344 76.484375 C 9.160156 76.722656 8.972656 77.261719 9.207031 77.769531 C 9.425781 78.242188 9.996094 78.585938 10.578125 78.335938 C 14.835938 76.507812 20.136719 74.230469 25.359375 75.078125 C 26.226562 75.21875 27.101562 75.460938 27.949219 75.796875 C 25.207031 79.058594 23.386719 83.1875 24.101562 86.90625 C 24.539062 89.175781 26.003906 90.648438 28.113281 90.949219 C 28.382812 90.988281 28.652344 91.003906 28.925781 91.003906 C 31.375 91.003906 33.90625 89.503906 35.054688 87.277344 C 37.195312 83.125 35.746094 77.9375 31.863281 75.039062 C 32.230469 74.71875 32.597656 74.421875 32.964844 74.152344 C 37.679688 70.664062 43.859375 69.769531 49.488281 71.753906 C 49.996094 71.933594 50.492188 71.707031 50.671875 71.214844 C 50.835938 70.75 50.660156 70.140625 50.070312 69.929688 " fill-opacity="1" fill-rule="nonzero"/><path fill="#68cddf" d="M 55.015625 16.480469 C 54.65625 17.769531 54.417969 19.324219 54.800781 20.632812 C 54.953125 21.140625 55.847656 21.246094 55.820312 20.59375 C 55.773438 19.273438 55.625 18.132812 55.929688 16.808594 C 56.058594 16.253906 55.183594 15.875 55.015625 16.480469 " fill-opacity="1" fill-rule="nonzero"/><path fill="#fe5275" d="M 52.1875 49.585938 C 49.765625 48.457031 47.21875 47.828125 44.546875 47.683594 C 43.910156 47.652344 43.957031 48.601562 44.542969 48.632812 C 47.132812 48.769531 49.589844 49.382812 51.941406 50.476562 C 52.527344 50.75 52.726562 49.835938 52.1875 49.585938 " fill-opacity="1" fill-rule="nonzero"/><path fill="#fe5275" d="M 24.199219 68.550781 C 23.449219 66.539062 23.710938 64.457031 24.949219 62.691406 C 25.28125 62.21875 24.472656 61.648438 24.125 62.144531 C 22.769531 64.082031 22.457031 66.484375 23.28125 68.703125 C 23.488281 69.253906 24.421875 69.152344 24.199219 68.550781 " fill-opacity="1" fill-rule="nonzero"/><path fill="#43e1b0" d="M 23.023438 36.675781 C 21.480469 34.074219 18.707031 32.382812 15.609375 32.769531 C 12.449219 33.164062 10.121094 35.683594 9.445312 38.699219 C 9.316406 39.28125 10.246094 39.675781 10.40625 39.042969 C 11.757812 33.707031 19.183594 32.296875 22.195312 37.0625 C 22.519531 37.574219 23.355469 37.234375 23.023438 36.675781 " fill-opacity="1" fill-rule="nonzero"/><path fill="#43e1b0" d="M 53.515625 63.628906 C 50.355469 59.609375 43.417969 61.664062 40.234375 64.546875 C 39.738281 64.996094 40.460938 65.730469 40.980469 65.359375 C 42.660156 64.164062 44.613281 63.335938 46.652344 62.992188 C 48.589844 62.664062 51.445312 62.605469 52.84375 64.230469 C 53.261719 64.714844 53.902344 64.117188 53.515625 63.628906 " fill-opacity="1" fill-rule="nonzero"/><path fill="#43e1b0" d="M 72.777344 13.4375 C 73.1875 11.40625 74.511719 9.757812 76.421875 8.921875 C 76.976562 8.679688 76.488281 7.820312 75.957031 8.050781 C 73.839844 8.976562 72.316406 10.851562 71.859375 13.105469 C 71.746094 13.667969 72.652344 14.046875 72.777344 13.4375 " fill-opacity="1" fill-rule="nonzero"/><path fill="#fe5275" d="M 12.558594 61.613281 L 11.679688 61.179688 C 11.566406 61.125 11.488281 61.015625 11.46875 60.894531 L 11.328125 59.925781 C 11.285156 59.617188 10.898438 59.492188 10.675781 59.714844 L 9.992188 60.414062 C 9.90625 60.503906 9.777344 60.546875 9.65625 60.523438 L 8.6875 60.359375 C 8.375 60.304688 8.136719 60.632812 8.285156 60.910156 L 8.742188 61.773438 C 8.800781 61.886719 8.800781 62.019531 8.742188 62.128906 L 8.285156 62.992188 C 8.136719 63.273438 8.375 63.597656 8.6875 63.542969 L 9.65625 63.378906 C 9.777344 63.359375 9.90625 63.398438 9.992188 63.488281 L 10.675781 64.1875 C 10.898438 64.414062 11.285156 64.289062 11.328125 63.976562 L 11.46875 63.011719 C 11.488281 62.886719 11.566406 62.78125 11.679688 62.726562 L 12.558594 62.292969 C 12.84375 62.152344 12.84375 61.75 12.558594 61.613281 " fill-opacity="1" fill-rule="nonzero"/><path fill="#68cddf" d="M 20.582031 23.058594 L 19.703125 22.628906 C 19.59375 22.570312 19.515625 22.464844 19.496094 22.339844 L 19.355469 21.375 C 19.308594 21.0625 18.925781 20.9375 18.703125 21.164062 L 18.019531 21.863281 C 17.929688 21.953125 17.804688 21.996094 17.679688 21.972656 L 16.714844 21.808594 C 16.402344 21.753906 16.164062 22.082031 16.3125 22.359375 L 16.769531 23.222656 C 16.824219 23.335938 16.824219 23.46875 16.769531 23.578125 L 16.3125 24.441406 C 16.164062 24.71875 16.402344 25.046875 16.714844 24.992188 L 17.679688 24.828125 C 17.804688 24.808594 17.929688 24.847656 18.019531 24.9375 L 18.703125 25.636719 C 18.925781 25.859375 19.308594 25.738281 19.355469 25.425781 L 19.496094 24.460938 C 19.515625 24.335938 19.59375 24.226562 19.703125 24.171875 L 20.582031 23.742188 C 20.867188 23.601562 20.867188 23.199219 20.582031 23.058594 " fill-opacity="1" fill-rule="nonzero"/><g clip-path="url(#7779330b70)"><path fill="#ffd032" d="M 55.6875 5.320312 L 54.808594 4.890625 C 54.695312 4.835938 54.617188 4.726562 54.601562 4.601562 L 54.460938 3.636719 C 54.414062 3.324219 54.027344 3.199219 53.808594 3.425781 L 53.125 4.125 C 53.035156 4.214844 52.910156 4.253906 52.785156 4.234375 L 51.816406 4.070312 C 51.507812 4.015625 51.269531 4.34375 51.414062 4.621094 L 51.871094 5.484375 C 51.929688 5.59375 51.929688 5.726562 51.871094 5.839844 L 51.414062 6.703125 C 51.269531 6.980469 51.507812 7.308594 51.816406 7.253906 L 52.785156 7.089844 C 52.910156 7.066406 53.035156 7.109375 53.125 7.199219 L 53.808594 7.898438 C 54.027344 8.125 54.414062 8 54.460938 7.6875 L 54.601562 6.722656 C 54.617188 6.597656 54.695312 6.488281 54.808594 6.433594 L 55.6875 6.003906 C 55.972656 5.863281 55.972656 5.460938 55.6875 5.320312 " fill-opacity="1" fill-rule="nonzero"/></g><path fill="#68cddf" d="M 27.585938 54.597656 C 27.585938 53.894531 27.011719 53.324219 26.304688 53.324219 C 25.601562 53.324219 25.027344 53.894531 25.027344 54.597656 C 25.027344 55.300781 25.601562 55.867188 26.304688 55.867188 C 27.011719 55.867188 27.585938 55.300781 27.585938 54.597656 " fill-opacity="1" fill-rule="nonzero"/><path fill="#7870de" d="M 47.566406 16.171875 C 47.566406 15.46875 46.992188 14.898438 46.285156 14.898438 C 45.578125 14.898438 45.007812 15.46875 45.007812 16.171875 C 45.007812 16.875 45.578125 17.445312 46.285156 17.445312 C 46.992188 17.445312 47.566406 16.875 47.566406 16.171875 " fill-opacity="1" fill-rule="nonzero"/><path fill="#7870de" d="M 2.558594 50.527344 C 2.558594 49.824219 1.984375 49.253906 1.277344 49.253906 C 0.574219 49.253906 0 49.824219 0 50.527344 C 0 51.230469 0.574219 51.800781 1.277344 51.800781 C 1.984375 51.800781 2.558594 51.230469 2.558594 50.527344 " fill-opacity="1" fill-rule="nonzero"/><path fill="#fe5275" d="M 19.8125 8.855469 C 19.8125 8.152344 19.238281 7.582031 18.53125 7.582031 C 17.824219 7.582031 17.253906 8.152344 17.253906 8.855469 C 17.253906 9.558594 17.824219 10.128906 18.53125 10.128906 C 19.238281 10.128906 19.8125 9.558594 19.8125 8.855469 " fill-opacity="1" fill-rule="nonzero"/><path fill="#fe5275" d="M 67.617188 54.597656 C 67.617188 53.894531 67.042969 53.324219 66.335938 53.324219 C 65.628906 53.324219 65.058594 53.894531 65.058594 54.597656 C 65.058594 55.300781 65.628906 55.867188 66.335938 55.867188 C 67.042969 55.867188 67.617188 55.300781 67.617188 54.597656 " fill-opacity="1" fill-rule="nonzero"/><path fill="#ffd032" d="M 38.441406 61.953125 C 38.441406 61.25 37.867188 60.679688 37.160156 60.679688 C 36.453125 60.679688 35.882812 61.25 35.882812 61.953125 C 35.882812 62.65625 36.453125 63.226562 37.160156 63.226562 C 37.867188 63.226562 38.441406 62.65625 38.441406 61.953125 " fill-opacity="1" fill-rule="nonzero"/></svg>