<svg xmlns="http://www.w3.org/2000/svg" xmlns:xlink="http://www.w3.org/1999/xlink" width="150" zoomAndPan="magnify" viewBox="0 0 112.5 112.499997" height="150" preserveAspectRatio="xMidYMid meet" version="1.0"><defs><clipPath id="f680a0f44b"><path d="M 18.773438 0 L 93.773438 0 L 93.773438 112.003906 L 18.773438 112.003906 Z M 18.773438 0 " clip-rule="nonzero"/></clipPath></defs><g clip-path="url(#f680a0f44b)"><path fill="#000000" d="M 66.648438 25.019531 C 63.148438 17.648438 55.648438 12.527344 46.898438 12.527344 L 18.773438 12.527344 L 18.773438 0.0351562 L 93.773438 0.0351562 L 93.773438 12.527344 L 73.398438 12.527344 C 76.398438 16.148438 78.648438 20.398438 79.960938 25.019531 L 93.773438 25.019531 L 93.773438 37.511719 L 81.148438 37.511719 C 79.585938 55 64.835938 68.742188 46.898438 68.742188 L 42.335938 68.742188 L 84.398438 112.464844 L 67.085938 112.464844 L 25.023438 68.742188 L 25.023438 56.25 L 46.898438 56.25 C 57.898438 56.25 67.023438 48.128906 68.523438 37.511719 L 18.773438 37.511719 L 18.773438 25.019531 Z M 66.648438 25.019531 " fill-opacity="1" fill-rule="nonzero"/></g></svg>